HIERARCHY
ROOT Hips
{
	OFFSET 0.00000 0.00000 0.00000
	CHANNELS 6 Xposition Yposition Zposition Zrotation Yrotation Xrotation 
	JOINT LHipJoint
	{
		OFFSET 0 0 0
		CHANNELS 3 Zrotation Yrotation Xrotation
		JOINT LeftUpLeg
		{
			OFFSET 1.62329 -1.80800 0.67318
			CHANNELS 3 Zrotation Yrotation Xrotation
			JOINT LeftLeg
			{
				OFFSET 2.57139 -7.06484 0.00000
				CHANNELS 3 Zrotation Yrotation Xrotation
				JOINT LeftFoot
				{
					OFFSET 2.52017 -6.92413 0.00000
					CHANNELS 3 Zrotation Yrotation Xrotation
					JOINT LeftToeBase
					{
						OFFSET 0.23295 -0.64001 2.10214
						CHANNELS 3 Zrotation Yrotation Xrotation
						End Site
						{
							OFFSET 0.00000 -0.00000 1.10139
						}
					}
				}
			}
		}
	}
	JOINT RHipJoint
	{
		OFFSET 0 0 0
		CHANNELS 3 Zrotation Yrotation Xrotation
		JOINT RightUpLeg
		{
			OFFSET -1.48061 -1.80800 0.67318
			CHANNELS 3 Zrotation Yrotation Xrotation
			JOINT RightLeg
			{
				OFFSET -2.63258 -7.23296 0.00000
				CHANNELS 3 Zrotation Yrotation Xrotation
				JOINT RightFoot
				{
					OFFSET -2.54779 -7.00000 0.00000
					CHANNELS 3 Zrotation Yrotation Xrotation
					JOINT RightToeBase
					{
						OFFSET -0.23067 -0.63376 2.12161
						CHANNELS 3 Zrotation Yrotation Xrotation
						End Site
						{
							OFFSET -0.00000 -0.00000 1.11000
						}
					}
				}
			}
		}
	}
	JOINT LowerBack
	{
		OFFSET 0 0 0
		CHANNELS 3 Zrotation Yrotation Xrotation
		JOINT Spine
		{
			OFFSET -0.02108 2.07573 -0.16981
			CHANNELS 3 Zrotation Yrotation Xrotation
			JOINT Spine1
			{
				OFFSET 0.05070 2.08439 -0.03141
				CHANNELS 3 Zrotation Yrotation Xrotation
				JOINT Neck
				{
					OFFSET 0 0 0
					CHANNELS 3 Zrotation Yrotation Xrotation
					JOINT Neck1
					{
						OFFSET -0.10731 1.60408 0.31370
						CHANNELS 3 Zrotation Yrotation Xrotation
						JOINT Head
						{
							OFFSET 0.08411 1.65679 -0.30822
							CHANNELS 3 Zrotation Yrotation Xrotation
							End Site
							{
								OFFSET 0.03911 1.69149 -0.14146
							}
						}
					}
				}
				JOINT LeftShoulder
				{
					OFFSET 0 0 0
					CHANNELS 3 Zrotation Yrotation Xrotation
					JOINT LeftArm
					{
						OFFSET 3.52315 0.73219 -0.54694
						CHANNELS 3 Zrotation Yrotation Xrotation
						JOINT LeftForeArm
						{
							OFFSET 5.32462 -0.00000 -0.00000
							CHANNELS 3 Zrotation Yrotation Xrotation
							JOINT LeftHand
							{
								OFFSET 3.48402 -0.00000 -0.00000
								CHANNELS 3 Zrotation Yrotation Xrotation
								JOINT LeftFingerBase
								{
									OFFSET 0 0 0
									CHANNELS 3 Zrotation Yrotation Xrotation
									JOINT LeftHandIndex1
									{
										OFFSET 0.57248 -0.00000 -0.00000
										CHANNELS 3 Zrotation Yrotation Xrotation
										End Site
										{
											OFFSET 0.46154 -0.00000 -0.00000
										}
									}
								}
								JOINT LThumb
								{
									OFFSET 0 0 0
									CHANNELS 3 Zrotation Yrotation Xrotation
									End Site
									{
										OFFSET 0.46859 -0.00000 0.46859
									}
								}
							}
						}
					}
				}
				JOINT RightShoulder
				{
					OFFSET 0 0 0
					CHANNELS 3 Zrotation Yrotation Xrotation
					JOINT RightArm
					{
						OFFSET -3.41766 0.93592 -0.10019
						CHANNELS 3 Zrotation Yrotation Xrotation
						JOINT RightForeArm
						{
							OFFSET -5.33589 -0.00000 -0.00000
							CHANNELS 3 Zrotation Yrotation Xrotation
							JOINT RightHand
							{
								OFFSET -3.64134 -0.00000 -0.00000
								CHANNELS 3 Zrotation Yrotation Xrotation
								JOINT RightFingerBase
								{
									OFFSET 0 0 0
									CHANNELS 3 Zrotation Yrotation Xrotation
									JOINT RightHandIndex1
									{
										OFFSET -0.73481 -0.00000 -0.00000
										CHANNELS 3 Zrotation Yrotation Xrotation
										End Site
										{
											OFFSET -0.59242 -0.00000 -0.00000
										}
									}
								}
								JOINT RThumb
								{
									OFFSET 0 0 0
									CHANNELS 3 Zrotation Yrotation Xrotation
									End Site
									{
										OFFSET -0.60147 -0.00000 0.60147
									}
								}
							}
						}
					}
				}
			}
		}
	}
}
MOTION
Frames: 15
Frame Time: .0083333
-2.8583 16.9520 3.8497 176.2360 -78.1422 -177.6240 0.0000 0.0000 0.0000 -6.6973 -5.2965 -9.1993 2.9005 10.5321 30.7177 0.6765 -7.9117 -14.8465 1.9380 -8.7358 -24.9723 0.0000 0.0000 0.0000 8.6315 8.5344 -7.1580 -5.6981 -14.1293 43.7579 -1.1379 12.8370 -19.7979 -0.4349 4.2316 -11.7293 -4.0408 0.6288 8.1183 0.7986 0.4563 -2.2515 3.0516 0.4151 -6.9745 -8.3008 3.0310 -26.0202 1.2838 6.7400 14.0102 2.6858 2.8175 8.2421 -0.0000 -0.0000 0.0000 56.4487 -28.5761 -75.3586 17.8284 -27.9369 -4.4686 -0.0000 0.0000 -13.4134 23.6424 24.1687 10.1615 -7.1250 0.0000 -0.0000 -6.2324 55.9708 -1.6820 -0.0000 -0.0000 0.0000 -67.3680 27.5238 -77.6601 -20.0544 30.7079 -5.5591 0.0000 -0.0000 -5.7524 -38.9505 -8.1900 6.5690 7.1250 -0.0000 -0.0000 -10.6441 -40.2395 -1.2656
-2.8261 16.9301 3.7968 176.6630 -78.5442 -178.2260 0.0000 0.0000 0.0000 -6.2839 -5.3572 -9.1435 2.8709 10.4831 30.5558 0.6323 -8.4615 -14.4829 1.9318 -8.7227 -24.9315 0.0000 0.0000 0.0000 8.9590 8.0683 -7.4442 -5.8672 -14.2984 44.4464 -1.2040 12.6844 -20.2560 -0.5300 4.6651 -12.9559 -3.8781 0.6995 8.3925 0.7350 0.5551 -2.1410 2.8779 0.4544 -7.0193 -8.3324 3.0702 -25.8897 1.2643 6.8086 14.2662 2.6971 2.8371 8.3057 -0.0000 -0.0000 0.0000 56.5341 -28.5869 -75.4089 18.1113 -28.2994 -4.6019 -0.0000 0.0000 -13.8912 23.5890 23.9555 10.0538 -7.1250 0.0000 -0.0000 -6.2078 55.7370 -1.6401 -0.0000 -0.0000 0.0000 -67.3537 27.2772 -77.7226 -20.1055 30.7693 -5.5852 0.0000 -0.0000 -6.1638 -39.1345 -8.2612 6.6684 7.1250 -0.0000 -0.0000 -10.8155 -40.3480 -1.2573
-2.7895 16.9205 3.7470 175.2310 -78.8767 -176.8250 0.0000 0.0000 0.0000 -6.3313 -5.6470 -9.1788 2.8358 10.4244 30.3622 0.5862 -8.6284 -14.0353 1.9317 -8.7223 -24.9306 0.0000 0.0000 0.0000 8.8479 7.5482 -7.9793 -6.0117 -14.4397 45.0288 -1.2532 12.3536 -20.5493 -0.5892 4.9143 -13.6644 -3.9773 0.7967 8.5508 0.5157 0.6528 -2.1011 2.6875 0.5015 -7.0741 -8.3357 3.1372 -25.7837 1.3542 6.8875 14.5495 2.7440 2.8753 8.3778 -0.0000 0.0000 0.0000 56.5398 -28.5655 -75.1477 18.4497 -28.7291 -4.7634 -0.0000 0.0000 -14.5354 23.7419 23.7157 10.0321 -7.1250 0.0000 -0.0000 -5.9561 55.5179 -1.5416 -0.0000 0.0000 0.0000 -67.2237 27.1586 -77.9204 -20.2434 30.9345 -5.6560 0.0000 -0.0000 -6.3921 -39.3283 -8.5753 6.9651 7.1250 -0.0000 -0.0000 -11.0211 -40.7632 -1.1675
-2.7483 16.9235 3.7025 169.2570 -79.0286 -170.6850 0.0000 0.0000 0.0000 -7.3860 -6.0594 -9.3819 2.7826 10.3346 30.0672 0.5480 -8.4392 -13.5878 1.9619 -8.7862 -25.1287 0.0000 0.0000 0.0000 7.6854 6.9232 -8.8348 -6.1195 -14.5432 45.4595 -1.2427 12.2933 -20.4601 -0.4872 4.4755 -12.4184 -4.8130 0.9615 8.5178 0.0362 0.7418 -2.1965 2.6388 0.5715 -7.1730 -8.5141 3.1341 -25.6177 1.6628 6.8813 14.7908 2.8786 2.8922 8.4147 0.0000 -0.0000 0.0000 56.4466 -28.6505 -74.7093 18.8233 -29.1985 -4.9443 -0.0000 0.0000 -15.1331 23.6020 23.4063 9.8467 -7.1250 0.0000 -0.0000 -5.9904 55.1653 -1.4991 0.0000 -0.0000 0.0000 -67.2209 27.2672 -78.4798 -20.2561 30.9496 -5.6625 0.0000 -0.0000 -6.4788 -39.4773 -8.4468 6.8987 7.1250 -0.0000 -0.0000 -11.1416 -40.6183 -1.2210
-2.7211 16.9278 3.6020 174.4630 -79.5832 -176.2210 0.0000 0.0000 0.0000 -5.8275 -5.9574 -8.9931 2.7107 10.2112 29.6635 0.4671 -8.9118 -12.8069 1.9649 -8.7925 -25.1485 0.0000 0.0000 0.0000 9.4811 6.6698 -8.4215 -6.1462 -14.5685 45.5657 -1.3726 11.4069 -21.2567 -0.5588 4.7884 -13.3059 -4.2178 1.0452 8.7627 0.2760 0.9317 -2.0268 2.5271 0.6422 -7.1392 -8.6876 3.0044 -25.3327 1.8185 6.7054 14.7065 2.9257 2.8239 8.3370 0.0000 0.0000 0.0000 56.4174 -28.7673 -74.1311 19.1895 -29.6535 -5.1243 -0.0000 0.0000 -15.7133 23.5002 23.1754 9.7104 -7.1250 0.0000 -0.0000 -6.0142 54.9029 -1.4667 0.0000 0.0000 0.0000 -67.1935 27.3218 -78.8714 -20.2698 30.9660 -5.6695 0.0000 -0.0000 -7.0659 -39.6882 -8.4027 6.9144 7.1250 -0.0000 -0.0000 -11.3264 -40.5860 -1.2510
-2.6912 16.9480 3.5239 175.7940 -79.9948 -177.6420 0.0000 0.0000 0.0000 -5.2434 -6.2356 -8.6745 2.6081 10.0318 29.0798 0.4016 -8.9308 -12.0583 1.9574 -8.7768 -25.0997 0.0000 0.0000 0.0000 10.2176 6.4467 -8.2238 -6.1047 -14.5291 45.4005 -1.4500 10.7654 -21.7296 -0.7422 5.5033 -15.3497 -3.9578 1.1400 8.7760 0.1727 1.0810 -1.9792 2.2494 0.7001 -7.0990 -8.9858 3.5776 -25.4808 2.3778 7.5327 15.8133 3.3079 3.2167 8.6561 -0.0000 0.0000 0.0000 56.3846 -28.8637 -73.2762 19.6004 -30.1579 -5.3291 -0.0000 0.0000 -16.4333 23.4104 23.0945 9.6383 -7.1250 0.0000 -0.0000 -6.0793 54.8002 -1.4674 -0.0000 0.0000 0.0000 -66.9926 27.3878 -79.1676 -20.3950 31.1153 -5.7341 0.0000 -0.0000 -7.6388 -39.7408 -8.5107 7.0147 7.1250 -0.0000 -0.0000 -11.3854 -40.7279 -1.2173
-2.6605 16.9872 3.4554 173.1060 -80.4057 -174.8970 0.0000 0.0000 0.0000 -5.5135 -6.9131 -8.3708 2.4879 9.8159 28.3825 0.3409 -8.4395 -11.1704 1.8938 -8.6414 -24.6798 0.0000 0.0000 0.0000 10.0323 5.9114 -8.2129 -5.9828 -14.4117 44.9127 -1.4474 10.5047 -21.6821 -0.8193 5.7757 -16.1350 -4.2127 1.2100 8.6026 -0.1610 1.1275 -2.0182 2.0362 0.7241 -7.0434 -8.5523 3.1913 -25.0553 2.1209 6.8593 15.5086 3.0451 2.9129 8.5494 0.0000 -0.0000 0.0000 56.1898 -28.9565 -72.1881 20.0340 -30.6833 -5.5487 -0.0000 0.0000 -17.1270 23.3312 23.0090 9.5695 -7.1250 0.0000 -0.0000 -6.1316 54.6949 -1.4644 0.0000 -0.0000 0.0000 -66.8536 27.5786 -79.4677 -20.4605 31.1932 -5.7680 0.0000 -0.0000 -8.2763 -39.9967 -8.7257 7.2537 7.1250 -0.0000 -0.0000 -11.6402 -41.0285 -1.1578
-2.6333 17.0340 3.3778 170.7270 -80.9360 -172.4820 0.0000 0.0000 0.0000 -5.6539 -7.6409 -7.9315 2.3381 9.5373 27.4910 0.2748 -7.8733 -10.1185 1.8685 -8.5866 -24.5105 0.0000 0.0000 0.0000 9.9992 5.1738 -8.0634 -5.8077 -14.2394 44.2050 -1.4195 10.3059 -21.4579 -0.7566 5.5553 -15.4995 -4.4634 1.2891 8.3722 -0.4201 1.1957 -2.0551 1.8977 0.7597 -6.9561 -8.5542 3.0072 -24.5743 2.1470 6.5555 15.3895 2.9988 2.7813 8.4460 0.0000 -0.0000 0.0000 55.8947 -29.2012 -71.0102 20.5500 -31.2992 -5.8144 -0.0000 0.0000 -17.7758 23.2611 22.9392 9.5111 -7.1250 0.0000 -0.0000 -6.1799 54.6079 -1.4629 0.0000 -0.0000 0.0000 -66.9406 27.8677 -79.9375 -20.2944 30.9954 -5.6822 0.0000 -0.0000 -8.7613 -40.3022 -8.7727 7.3704 7.1250 -0.0000 -0.0000 -11.9221 -41.1235 -1.1583
-2.6117 17.0886 3.2915 170.3530 -81.6393 -172.0930 0.0000 0.0000 0.0000 -5.3562 -8.0762 -7.5645 2.1700 9.2115 26.4593 0.1868 -7.4953 -8.6926 1.9219 -8.7015 -24.8658 0.0000 0.0000 0.0000 10.4207 4.3779 -7.7240 -5.5870 -14.0158 43.3007 -1.3927 9.9147 -21.2220 -0.7607 5.5702 -15.5422 -4.3843 1.3196 8.0805 -0.5796 1.2481 -2.0765 1.6830 0.7755 -6.8090 -8.7469 2.9254 -24.2082 2.4035 6.4304 15.6124 3.0971 2.7348 8.4528 0.0000 0.0000 0.0000 55.6922 -29.5465 -69.9559 21.0074 -31.8370 -6.0538 -0.0000 0.0000 -18.3119 23.0258 22.6798 9.3066 -7.1250 0.0000 -0.0000 -6.3331 54.2902 -1.4503 0.0000 0.0000 0.0000 -67.0925 28.4145 -81.0568 -20.0325 30.6815 -5.5479 0.0000 -0.0000 -8.2738 -40.2707 -9.0638 7.6018 7.1250 -0.0000 -0.0000 -11.9275 -41.4885 -1.0497
-2.5888 17.1563 3.2040 171.0980 -82.4346 -172.7750 0.0000 0.0000 0.0000 -4.8524 -8.4374 -7.3713 2.0085 8.8837 25.4322 0.0931 -7.0848 -6.9149 2.0170 -8.9013 -25.4872 0.0000 0.0000 0.0000 11.0267 3.5665 -7.3194 -5.3228 -13.7384 42.1994 -1.3119 9.7177 -20.5962 -0.5841 4.8935 -13.6050 -4.1338 1.3344 7.8179 -0.6742 1.2999 -2.1314 1.4404 0.7875 -6.7106 -8.8291 2.8438 -24.0229 2.5245 6.3172 16.0267 3.1448 2.6753 8.5641 0.0000 -0.0000 0.0000 55.3990 -29.9446 -68.8068 21.5400 -32.4533 -6.3372 -0.0000 0.0000 -18.8384 22.6674 22.3941 9.0406 -7.1250 0.0000 -0.0000 -6.6036 53.9222 -1.4533 0.0000 -0.0000 0.0000 -67.1083 28.8688 -81.7047 -19.8904 30.5101 -5.4756 0.0000 -0.0000 -8.1550 -40.0122 -9.5013 7.8892 7.1250 -0.0000 -0.0000 -11.7407 -42.0092 -0.8796
-2.5692 17.2401 3.1142 170.8320 -83.2048 -172.4490 0.0000 0.0000 0.0000 -4.5428 -9.0517 -7.0595 1.8569 8.5614 24.4328 0.0296 -6.3557 -5.1920 2.0340 -8.9364 -25.5967 0.0000 0.0000 0.0000 11.4638 2.7964 -6.8394 -5.0362 -13.4245 40.9790 -1.1780 9.7956 -19.5651 -0.2000 2.8798 -7.9444 -4.1834 1.3713 7.5175 -0.7444 1.3523 -2.1947 1.3927 0.8125 -6.6083 -8.9792 2.7483 -24.0389 2.7840 6.2027 16.6279 3.2620 2.6191 8.7668 -0.0000 -0.0000 0.0000 54.9921 -30.3841 -67.5639 22.1223 -33.1150 -6.6525 -0.0000 0.0000 -19.4995 22.2752 22.3384 8.8493 -7.1250 0.0000 -0.0000 -6.9874 53.7888 -1.5156 -0.0000 -0.0000 0.0000 -67.2121 29.1039 -81.8783 -19.7427 30.3311 -5.4008 0.0000 -0.0000 -8.4539 -39.7929 -9.9231 8.1685 7.1250 -0.0000 -0.0000 -11.5840 -42.5117 -0.7217
-2.5497 17.3302 3.0258 170.5040 -84.1144 -172.2140 0.0000 0.0000 0.0000 -4.2732 -10.0683 -6.5223 1.7186 8.2537 23.4872 -0.0057 -5.1884 -3.4476 2.1456 -9.1630 -26.3065 0.0000 0.0000 0.0000 11.9100 1.8897 -6.1773 -4.7394 -13.0841 39.6842 -1.0669 9.6075 -18.6428 -0.0612 1.5958 -4.3900 -4.1102 1.3190 7.3193 -0.8985 1.2900 -2.1568 1.2035 0.7719 -6.4450 -8.9150 2.7346 -24.0224 2.9262 6.1407 17.0116 3.3049 2.5968 8.8971 0.0000 0.0000 0.0000 54.5263 -30.5096 -65.8813 22.8603 -33.9357 -7.0601 -0.0000 0.0000 -20.4499 21.5995 22.0357 8.4491 -7.1250 0.0000 -0.0000 -7.5711 53.3465 -1.5613 0.0000 0.0000 0.0000 -67.3948 29.2757 -82.3168 -19.5219 30.0621 -5.2898 0.0000 -0.0000 -8.6175 -39.6588 -10.3369 8.4609 7.1250 -0.0000 -0.0000 -11.5020 -43.0128 -0.5721
-2.5311 17.4254 2.9297 170.0160 -85.0751 -171.6550 0.0000 0.0000 0.0000 -3.9571 -11.1706 -6.2821 1.5926 7.9603 22.5937 -0.0216 -3.7632 -1.5176 2.2017 -9.2742 -26.6567 0.0000 0.0000 0.0000 12.3818 1.1686 -5.6915 -4.4571 -12.7450 38.4211 -0.9614 9.0991 -17.6832 -0.0238 0.9952 -2.7356 -4.0094 1.2498 6.9651 -1.1032 1.2109 -2.1628 0.9505 0.7207 -6.2369 -8.7771 2.7323 -23.8505 2.9225 6.0782 17.1619 3.2741 2.5711 8.9283 0.0000 -0.0000 0.0000 54.1789 -30.6384 -64.1309 23.6647 -34.8077 -7.5143 -0.0000 0.0000 -21.3997 21.1007 22.0376 8.2385 -7.1250 0.0000 -0.0000 -8.0787 53.2554 -1.6489 0.0000 -0.0000 0.0000 -67.3572 29.4497 -82.5213 -19.3581 29.8612 -5.2080 0.0000 -0.0000 -8.7927 -39.4624 -10.9195 8.8636 7.1250 -0.0000 -0.0000 -11.3749 -43.7137 -0.3661
-2.5137 17.5326 2.8289 172.2790 -86.0890 -173.7960 0.0000 0.0000 0.0000 -3.3514 -12.0978 -6.3361 1.4894 7.7099 21.8363 -0.0176 -2.3630 0.6544 2.1061 -9.0837 -26.0575 0.0000 0.0000 0.0000 13.1362 0.6139 -5.2373 -4.1920 -12.4117 37.2042 -0.8614 8.2940 -16.6892 -0.0028 0.3440 -0.9451 -3.7991 1.2532 6.6251 -1.2289 1.2412 -2.2373 0.7038 0.7236 -6.1141 -8.9275 2.5795 -23.7567 3.2192 5.8539 17.4942 3.3796 2.4797 9.0268 0.0000 -0.0000 0.0000 54.0543 -30.9934 -62.6456 24.4138 -35.5988 -7.9461 -0.0000 0.0000 -22.2097 20.5226 21.9366 7.9608 -7.1250 0.0000 -0.0000 -8.6270 53.0446 -1.7175 0.0000 -0.0000 0.0000 -67.0725 29.4941 -82.2604 -19.2197 29.6907 -5.1392 0.0000 -0.0000 -9.0032 -39.1436 -11.4867 9.2069 7.1250 -0.0000 -0.0000 -11.1245 -44.3729 -0.1744
-2.4947 17.6396 2.7362 173.0250 -87.0350 -174.3780 0.0000 0.0000 0.0000 -2.9610 -12.9959 -6.5366 1.4090 7.5080 21.2293 0.0166 -0.4459 2.6385 2.0413 -8.9516 -25.6441 0.0000 0.0000 0.0000 13.6729 0.0349 -4.9763 -3.9552 -12.1006 36.0886 -0.7495 7.2905 -15.5098 -0.0001 0.0781 -0.2146 -3.7076 1.3260 6.2752 -1.3782 1.3514 -2.3038 0.4907 0.7694 -5.9825 -9.1843 2.3399 -23.7513 3.6222 5.5309 17.8546 3.5300 2.3469 9.1519 0.0000 0.0000 0.0000 53.8986 -31.2715 -61.1683 25.1899 -36.3975 -8.4024 -0.0000 0.0000 -23.1244 19.9575 21.8496 7.6967 -7.1250 0.0000 -0.0000 -9.1640 52.8521 -1.7825 0.0000 0.0000 0.0000 -66.8108 29.4193 -81.9977 -19.0753 29.5121 -5.0679 0.0000 -0.0000 -9.2239 -38.7411 -12.0435 9.5038 7.1250 -0.0000 -0.0000 -10.7851 -45.0012 0.0003
